<svg width="48" height="48" viewBox="0 0 48 48" fill="none" xmlns="http://www.w3.org/2000/svg">
<path d="M17.1135 44.8399C18.9733 45.5884 20.991 46.0326 23.1096 46.1066C25.9768 46.2067 28.7034 45.6139 31.1409 44.4879C28.2179 43.3395 25.5707 41.66 23.3114 39.572C21.8469 41.9168 19.6808 43.769 17.1135 44.8399Z" fill="#FF9100"/>
<path d="M23.3111 39.5728C18.1538 34.8031 15.0252 27.8995 15.2896 20.3274C15.2982 20.0815 15.3112 19.8358 15.3264 19.5901C14.4027 19.3512 13.4384 19.2055 12.4461 19.1708C11.0257 19.1212 9.65008 19.2974 8.35144 19.6631C6.9747 22.0747 6.14391 24.8417 6.04041 27.8055C5.7733 35.4544 10.4022 42.1379 17.1131 44.8407C19.6806 43.7697 21.8466 41.9199 23.3111 39.5728Z" fill="#FFC400"/>
<path d="M23.3112 39.5726C24.5103 37.6537 25.2372 35.4041 25.3219 32.9803C25.5445 26.6047 21.2585 21.1202 15.3265 19.5898C15.3113 19.8355 15.2983 20.0813 15.2897 20.3271C15.0253 27.8992 18.1539 34.8028 23.3112 39.5726Z" fill="#FF9100"/>
<path d="M24.6585 1.6687C21.28 4.37529 18.6121 7.94419 16.998 12.0555C16.0739 14.4103 15.4932 16.9399 15.3237 19.5915C21.2557 21.1219 25.5418 26.6063 25.3191 32.9819C25.2345 35.4056 24.5054 37.6531 23.3084 39.5742C25.5676 41.6643 28.2149 43.3416 31.1378 44.49C37.0048 41.778 41.1674 35.9423 41.4085 29.0398C41.5646 24.5677 39.8464 20.5819 37.4185 17.2175C34.8544 13.6594 24.6585 1.6687 24.6585 1.6687Z" fill="#DD2C00"/>
</svg>
