<svg width="20" height="24" viewBox="0 0 20 24" fill="none" xmlns="http://www.w3.org/2000/svg">
<path fill-rule="evenodd" clip-rule="evenodd" d="M5.22001 9.86396C5.36064 9.69542 5.55126 9.60076 5.75001 9.60076C5.94876 9.60076 6.13939 9.69542 6.28001 9.86396L10 14.328L13.72 9.86396C13.7887 9.77554 13.8715 9.70462 13.9635 9.65543C14.0555 9.60624 14.1548 9.57979 14.2555 9.57765C14.3562 9.57552 14.4562 9.59775 14.5496 9.64302C14.643 9.68828 14.7278 9.75566 14.799 9.84112C14.8703 9.92658 14.9264 10.0284 14.9641 10.1404C15.0019 10.2525 15.0204 10.3725 15.0186 10.4934C15.0168 10.6142 14.9948 10.7334 14.9538 10.8438C14.9128 10.9542 14.8537 11.0536 14.78 11.136L10.53 16.236C10.3894 16.4045 10.1988 16.4992 10 16.4992C9.80126 16.4992 9.61064 16.4045 9.47001 16.236L5.22001 11.136C5.07956 10.9672 5.00067 10.7385 5.00067 10.5C5.00067 10.2615 5.07956 10.0327 5.22001 9.86396Z" fill="#1E1E1E"/>
</svg>
