<svg width="138" height="136" viewBox="0 0 138 136" fill="none" xmlns="http://www.w3.org/2000/svg">
<path fill-rule="evenodd" clip-rule="evenodd" d="M69.0571 0C30.8703 0 0 31.1665 0 69.7238C0 100.545 19.7797 126.634 47.2193 135.868C50.65 136.562 51.9066 134.367 51.9066 132.522C51.9066 130.905 51.7935 125.365 51.7935 119.592C32.5835 123.748 28.5832 111.28 28.5832 111.28C25.496 103.199 20.9218 101.123 20.9218 101.123C14.6344 96.8514 21.3798 96.8514 21.3798 96.8514C28.3542 97.3133 32.0139 104.008 32.0139 104.008C38.1868 114.628 48.1339 111.627 52.1356 109.78C52.7067 105.278 54.5372 102.161 56.4808 100.43C41.1595 98.8135 25.0395 92.8111 25.0395 66.0291C25.0395 58.4103 27.7817 52.177 32.1269 47.3292C31.4414 45.5981 29.0398 38.4397 32.8139 28.8588C32.8139 28.8588 38.6448 27.0115 51.7921 36.0158C57.421 34.4895 63.2259 33.7131 69.0571 33.7066C74.8879 33.7066 80.8319 34.5155 86.3207 36.0158C99.4694 27.0115 105.3 28.8588 105.3 28.8588C109.074 38.4397 106.671 45.5981 105.986 47.3292C110.446 52.177 113.075 58.4103 113.075 66.0291C113.075 92.8111 96.9547 98.6973 81.5189 100.43C84.035 102.623 86.2062 106.778 86.2062 113.358C86.2062 122.708 86.0931 130.212 86.0931 132.52C86.0931 134.367 87.3511 136.562 90.7804 135.869C118.22 126.632 138 100.545 138 69.7238C138.113 31.1665 107.129 0 69.0571 0Z" fill="white"/>
</svg>
