<svg width="36" height="37" viewBox="0 0 36 37" fill="none" xmlns="http://www.w3.org/2000/svg">
<path fill-rule="evenodd" clip-rule="evenodd" d="M18.0149 0C8.05312 0 0 8.47913 0 18.969C0 27.3541 5.15991 34.4519 12.3181 36.964C13.213 37.1529 13.5409 36.5558 13.5409 36.0537C13.5409 35.6139 13.5114 34.1065 13.5114 32.536C8.50005 33.6668 7.45649 30.2747 7.45649 30.2747C6.65114 28.0763 5.45786 27.5113 5.45786 27.5113C3.81766 26.3493 5.57734 26.3493 5.57734 26.3493C7.39675 26.4749 8.35144 28.2964 8.35144 28.2964C9.96177 31.1855 12.5567 30.3692 13.6006 29.8666C13.7496 28.6417 14.2271 27.7938 14.7341 27.3228C10.7373 26.8831 6.53203 25.2501 6.53203 17.9638C6.53203 15.891 7.24741 14.1952 8.38094 12.8763C8.2021 12.4054 7.57559 10.4579 8.56015 7.85129C8.56015 7.85129 10.0812 7.34871 13.511 9.79841C14.9794 9.38319 16.4937 9.17196 18.0149 9.17018C19.536 9.17018 21.0866 9.39025 22.5184 9.79841C25.9485 7.34871 27.4696 7.85129 27.4696 7.85129C28.4542 10.4579 27.8273 12.4054 27.6485 12.8763C28.8119 14.1952 29.4978 15.891 29.4978 17.9638C29.4978 25.2501 25.2925 26.8515 21.2658 27.3228C21.9222 27.9195 22.4886 29.0499 22.4886 30.8401C22.4886 33.3839 22.4591 35.4254 22.4591 36.0533C22.4591 36.5558 22.7873 37.1529 23.6818 36.9644C30.84 34.4515 35.9999 27.3541 35.9999 18.969C36.0294 8.47913 27.9468 0 18.0149 0Z" fill="#24292F"/>
</svg>
