<svg width="26" height="26" viewBox="0 0 26 26" fill="none" xmlns="http://www.w3.org/2000/svg">
<path fill-rule="evenodd" clip-rule="evenodd" d="M5.7932 7.3599C5.54389 7.3599 5.3048 7.45893 5.12851 7.63522C4.95222 7.81151 4.85318 8.05061 4.85318 8.29992V18.9535C4.85318 19.4724 5.27431 19.8935 5.7932 19.8935H16.4468C16.6961 19.8935 16.9352 19.7944 17.1114 19.6182C17.2877 19.4419 17.3868 19.2028 17.3868 18.9535V13.94C17.3868 13.6907 17.4858 13.4516 17.6621 13.2753C17.8384 13.0991 18.0775 13 18.3268 13C18.5761 13 18.8152 13.0991 18.9915 13.2753C19.1678 13.4516 19.2668 13.6907 19.2668 13.94V18.9535C19.2668 19.7014 18.9697 20.4187 18.4408 20.9476C17.912 21.4764 17.1947 21.7735 16.4468 21.7735H5.7932C5.04528 21.7735 4.32798 21.4764 3.79912 20.9476C3.27026 20.4187 2.97314 19.7014 2.97314 18.9535V8.29992C2.97314 7.55199 3.27026 6.8347 3.79912 6.30583C4.32798 5.77697 5.04528 5.47986 5.7932 5.47986H12.06C12.3093 5.47986 12.5484 5.5789 12.7247 5.75518C12.901 5.93147 13 6.17057 13 6.41988C13 6.66919 12.901 6.90828 12.7247 7.08457C12.5484 7.26086 12.3093 7.3599 12.06 7.3599H5.7932Z" fill="white"/>
<path fill-rule="evenodd" clip-rule="evenodd" d="M8.22975 16.4505C8.31258 16.5422 8.41266 16.6166 8.52428 16.6696C8.6359 16.7225 8.75687 16.753 8.88026 16.7591C9.00365 16.7653 9.12704 16.7471 9.24339 16.7055C9.35973 16.664 9.46675 16.5999 9.55831 16.5169L21.1469 6.03134V9.55328C21.1469 9.80259 21.2459 10.0417 21.4222 10.218C21.5985 10.3943 21.8376 10.4933 22.0869 10.4933C22.3362 10.4933 22.5753 10.3943 22.7516 10.218C22.9279 10.0417 23.0269 9.80259 23.0269 9.55328V3.91316C23.0269 3.66386 22.9279 3.42476 22.7516 3.24847C22.5753 3.07218 22.3362 2.97314 22.0869 2.97314H16.4468C16.1975 2.97314 15.9584 3.07218 15.7821 3.24847C15.6058 3.42476 15.5067 3.66386 15.5067 3.91316C15.5067 4.16247 15.6058 4.40157 15.7821 4.57786C15.9584 4.75415 16.1975 4.85318 16.4468 4.85318H19.6466L8.29617 15.1232C8.20451 15.206 8.13007 15.3061 8.07712 15.4177C8.02416 15.5294 7.99373 15.6503 7.98756 15.7737C7.98139 15.8971 7.99961 16.0205 8.04116 16.1368C8.08272 16.2532 8.1468 16.359 8.22975 16.4505Z" fill="white"/>
</svg>
