<svg width="112" height="101" viewBox="0 0 112 101" fill="none" xmlns="http://www.w3.org/2000/svg">
<g clip-path="url(#clip0_3_124)">
<path d="M56.1968 39.6504C50.2721 39.6504 45.4692 44.4638 45.4692 50.4014C45.4692 56.339 50.2721 61.1523 56.1968 61.1523C62.1215 61.1523 66.9244 56.339 66.9244 50.4014C66.9244 44.4638 62.1215 39.6504 56.1968 39.6504Z" fill="white"/>
<path d="M111.992 50.4989C111.992 42.0585 104.193 34.6559 91.7754 29.7842C91.9413 28.6871 92.0914 27.6018 92.1981 26.5364C93.4229 14.4086 90.5071 5.65533 83.9921 1.8847C76.7027 -2.33349 66.4067 0.728166 55.996 9.07742C45.5854 0.728166 35.2894 -2.33349 28 1.8847C21.485 5.65533 18.5692 14.4086 19.794 26.5364C19.9007 27.6018 20.0468 28.691 20.2167 29.7921C19.1816 30.1882 18.1662 30.608 17.1903 31.0477C6.10413 36.0422 0 42.9576 0 50.4989C0 58.9392 7.79907 66.3419 20.2167 71.2136C20.0468 72.3107 19.9007 73.396 19.794 74.4614C18.5692 86.5892 21.485 95.3424 28 99.1131C30.2399 100.386 32.7781 101.037 35.3526 100.998C41.5239 100.998 48.7304 97.7427 55.996 91.9204C63.2578 97.7427 70.4682 100.998 76.6474 100.998C79.2218 101.036 81.7598 100.385 84 99.1131C90.515 95.3424 93.4308 86.5892 92.206 74.4614C92.0993 73.396 91.9492 72.3107 91.7833 71.2136C104.201 66.3498 112 58.9353 112 50.4989M76.6 5.3464C78.2554 5.30637 79.8916 5.70825 81.341 6.51085C85.8648 9.12891 87.8956 16.2305 86.9079 25.9938C86.8407 26.6592 86.7617 27.3325 86.6669 28.0098C81.5035 26.451 76.2162 25.3392 70.8633 24.6867C67.6183 20.3626 64.0098 16.325 60.0773 12.6183C66.2526 7.83374 72.0485 5.3464 76.596 5.3464M74.4744 61.1929C72.4762 64.6697 70.3003 68.0409 67.9554 71.2928C63.9808 71.7021 59.9877 71.9057 55.9921 71.9028C51.9978 71.9056 48.0061 71.702 44.0327 71.2928C41.6941 68.0407 39.5248 64.6696 37.5335 61.1929C35.5354 57.7257 33.7195 54.1562 32.0931 50.4989C33.7195 46.8416 35.5354 43.2721 37.5335 39.8049C39.5217 36.3421 41.6843 32.983 44.013 29.7406C47.9936 29.3212 51.9935 29.1123 55.996 29.1148C59.9903 29.1124 63.982 29.316 67.9554 29.7248C70.2921 32.9722 72.4626 36.3365 74.4586 39.8049C76.4551 43.2729 78.271 46.8424 79.899 50.4989C78.271 54.1554 76.4551 57.7249 74.4586 61.1929M82.6172 57.2322C83.8711 60.6599 84.9005 64.166 85.6989 67.7281C82.2343 68.8109 78.7025 69.6643 75.1263 70.2828C76.4854 68.2285 77.8024 66.091 79.0772 63.8704C80.3375 61.6761 81.5188 59.4621 82.633 57.248M48.4933 77.0082C50.9508 77.1587 53.4596 77.2458 56 77.2458C58.5404 77.2458 61.0651 77.1587 63.5265 77.0082C61.1927 79.8104 58.6785 82.4566 56 84.9296C53.3273 82.4569 50.8196 79.8107 48.4933 77.0082ZM36.8698 70.2749C33.2924 69.6592 29.7593 68.8084 26.2932 67.7281C27.0884 64.1716 28.1138 60.6708 29.3631 57.248C30.4614 59.4621 31.6388 61.6761 32.9189 63.8704C34.199 66.0646 35.5225 68.2272 36.8698 70.2828M29.3631 43.7458C28.1183 40.3357 27.0955 36.8482 26.3011 33.3053C29.7586 32.2238 33.2822 31.3678 36.85 30.7427C35.4988 32.7904 34.1753 34.9134 32.8991 37.1274C31.623 39.3415 30.4575 41.5278 29.3433 43.7458M63.5028 23.9857C61.0453 23.8352 58.5365 23.748 55.9763 23.748C53.4372 23.748 50.935 23.8272 48.4696 23.9857C50.7959 21.1831 53.3036 18.5369 55.9763 16.0642C58.6558 18.5362 61.1701 21.1824 63.5028 23.9857ZM79.0693 37.1274C77.7892 34.9041 76.4656 32.7653 75.0986 30.711C78.6843 31.3295 82.2254 32.1843 85.6989 33.2696C84.9019 36.8257 83.8765 40.3264 82.629 43.7498C81.5307 41.5357 80.3494 39.3217 79.0732 37.1314M25.1 25.9977C24.1005 16.2384 26.1431 9.13287 30.6629 6.51481C32.1128 5.71345 33.7487 5.31166 35.404 5.35036C39.9515 5.35036 45.7474 7.8377 51.9227 12.6223C47.9876 16.3316 44.3765 20.3718 41.1288 24.6986C35.7773 25.3542 30.4907 26.4618 25.3252 28.0098C25.2344 27.3325 25.1514 26.6631 25.0882 25.9977M19.3791 35.9233C19.9876 35.6593 20.6079 35.3952 21.24 35.1312C22.4828 40.3873 24.1679 45.5283 26.2774 50.4989C24.164 55.4792 22.4774 60.631 21.2361 65.8983C11.1692 61.7593 5.33371 56.0241 5.33371 50.4989C5.33371 45.2628 10.4699 39.9514 19.3791 35.9233ZM30.6629 94.483C26.1431 91.8649 24.1005 84.7593 25.1 75.0001C25.1633 74.3346 25.2462 73.6653 25.3371 72.984C30.5006 74.5424 35.7878 75.6542 41.1407 76.3071C44.3867 80.6329 47.9951 84.673 51.9266 88.3834C43.3176 95.0493 35.4514 97.2476 30.6748 94.483M86.9039 75.0001C87.8916 84.7633 85.8609 91.8649 81.3371 94.483C76.5644 97.2555 68.6942 95.0493 60.0892 88.3834C64.0194 84.6729 67.6265 80.6328 70.8712 76.3071C76.2242 75.6546 81.5114 74.5429 86.6748 72.984C86.7696 73.6653 86.8486 74.3346 86.9158 75.0001M90.7797 65.8903C89.5349 60.6261 87.8471 55.4772 85.7344 50.4989C87.8461 45.5179 89.5326 40.3663 90.7758 35.0995C100.823 39.2385 106.674 44.9736 106.674 50.4989C106.674 56.0241 100.839 61.7593 90.7718 65.8983" fill="white"/>
</g>
<defs>
<clipPath id="clip0_3_124">
<rect width="112" height="101" fill="white"/>
</clipPath>
</defs>
</svg>
