<svg width="150" height="150" viewBox="0 0 150 150" fill="none" xmlns="http://www.w3.org/2000/svg">
<path d="M150 75C150 33.5786 116.421 0 75 0C33.5786 0 0 33.5786 0 75C0 116.421 33.5786 150 75 150C116.421 150 150 116.421 150 75Z" fill="white"/>
<path fill-rule="evenodd" clip-rule="evenodd" d="M82.3645 93.9285V108.385C84.7382 109.59 87.545 110.494 90.7849 111.097C94.0255 111.699 97.4409 112 101.031 112C104.53 112 107.855 111.668 111.003 111.006C114.152 110.343 116.914 109.252 119.287 107.73C121.66 106.21 123.539 104.222 124.924 101.767C126.308 99.3122 127 96.2781 127 92.6636C127 90.0431 126.605 87.7466 125.813 85.7735C125.022 83.8011 123.881 82.0464 122.39 80.5106C120.899 78.9742 119.112 77.5967 117.028 76.3768C114.944 75.1569 112.593 74.0046 109.976 72.9205C108.06 72.1373 106.341 71.3766 104.819 70.6391C103.298 69.9009 102.005 69.1483 100.94 68.3801C99.8749 67.6119 99.0535 66.7987 98.4756 65.9404C97.8971 65.0821 97.6082 64.1106 97.6082 63.0265C97.6082 62.0324 97.867 61.1366 98.384 60.3384C98.9017 59.5402 99.6315 58.8548 100.575 58.2825C101.518 57.7102 102.674 57.266 104.043 56.9497C105.412 56.6335 106.934 56.4754 108.607 56.4754C109.825 56.4754 111.11 56.5658 112.464 56.7465C113.818 56.9272 115.179 57.2058 116.549 57.5823C117.918 57.9588 119.249 58.4332 120.542 59.0053C121.835 59.5777 123.029 60.2402 124.125 60.9934V47.4848C121.903 46.6415 119.477 46.0165 116.845 45.6099C114.213 45.2033 111.194 45 107.786 45C104.317 45 101.031 45.369 97.9279 46.1069C94.8244 46.8448 92.0938 47.9969 89.7355 49.563C87.3772 51.1292 85.514 53.1246 84.1449 55.5492C82.7758 57.9738 82.0909 60.8726 82.0909 64.2463C82.0909 68.5534 83.346 72.2274 85.8562 75.2696C88.3664 78.3117 92.1771 80.8872 97.2891 82.9954C99.297 83.8086 101.168 84.6068 102.903 85.39C104.636 86.1727 106.135 86.9859 107.398 87.8292C108.661 88.673 109.657 89.5914 110.387 90.5854C111.118 91.5794 111.483 92.7086 111.483 93.9735C111.483 94.9075 111.255 95.7733 110.798 96.5715C110.342 97.3697 109.65 98.0623 108.721 98.6497C107.794 99.2371 106.637 99.6963 105.253 100.028C103.868 100.359 102.248 100.525 100.393 100.525C97.2282 100.525 94.094 99.9747 90.9906 98.8755C87.8871 97.7764 85.0118 96.1274 82.3645 93.9285ZM57.1017 58.0194H76.1818V46.1552H23V58.0194H41.9869V110.845H57.1017V58.0194Z" fill="black"/>
</svg>
