<svg width="32" height="32" viewBox="0 0 32 32" fill="none" xmlns="http://www.w3.org/2000/svg">
<path d="M10.0479 8.35197C9.82042 8.14001 9.51955 8.02461 9.20867 8.03009C8.89779 8.03558 8.60117 8.16152 8.38131 8.38138C8.16145 8.60124 8.03551 8.89786 8.03002 9.20874C8.02454 9.51962 8.13994 9.82049 8.3519 10.048L14.3039 16L8.3519 21.952C8.234 22.0618 8.13944 22.1943 8.07385 22.3415C8.00827 22.4887 7.973 22.6476 7.97016 22.8087C7.96731 22.9699 7.99695 23.1299 8.05731 23.2793C8.11766 23.4288 8.20749 23.5645 8.32144 23.6784C8.43539 23.7924 8.57113 23.8822 8.72055 23.9426C8.86997 24.0029 9.03002 24.0326 9.19114 24.0297C9.35226 24.0269 9.51117 23.9916 9.65836 23.926C9.80556 23.8604 9.93804 23.7659 10.0479 23.648L15.9999 17.696L21.9519 23.648C22.0618 23.7659 22.1942 23.8604 22.3414 23.926C22.4886 23.9916 22.6475 24.0269 22.8087 24.0297C22.9698 24.0326 23.1298 24.0029 23.2793 23.9426C23.4287 23.8822 23.5644 23.7924 23.6784 23.6784C23.7923 23.5645 23.8821 23.4288 23.9425 23.2793C24.0029 23.1299 24.0325 22.9699 24.0296 22.8087C24.0268 22.6476 23.9915 22.4887 23.926 22.3415C23.8604 22.1943 23.7658 22.0618 23.6479 21.952L17.6959 16L23.6479 10.048C23.8599 9.82049 23.9753 9.51962 23.9698 9.20874C23.9643 8.89786 23.8384 8.60124 23.6185 8.38138C23.3986 8.16152 23.102 8.03558 22.7911 8.03009C22.4803 8.02461 22.1794 8.14001 21.9519 8.35197L15.9999 14.304L10.0479 8.35197Z" fill="black"/>
</svg>
