<svg width="33" height="33" viewBox="0 0 33 33" fill="none" xmlns="http://www.w3.org/2000/svg">
<g clip-path="url(#clip0_5_31)">
<path d="M33 16.5C33 7.3873 25.6127 0 16.5 0C7.3873 0 0 7.3873 0 16.5C0 25.6127 7.3873 33 16.5 33C25.6127 33 33 25.6127 33 16.5Z" fill="#3178C6"/>
<path fill-rule="evenodd" clip-rule="evenodd" d="M18.1066 20.7168V23.9433C18.6244 24.2122 19.2367 24.4139 19.9435 24.5484C20.6504 24.6828 21.3955 24.75 22.1787 24.75C22.942 24.75 23.6672 24.676 24.3541 24.5282C25.0411 24.3803 25.6435 24.1367 26.1611 23.7971C26.6788 23.4577 27.0887 23.014 27.3908 22.4662C27.6928 21.9183 27.8438 21.2412 27.8438 20.4345C27.8438 19.8496 27.7575 19.3371 27.5849 18.8968C27.4123 18.4565 27.1634 18.0649 26.8382 17.7222C26.5129 17.3793 26.123 17.0718 25.6683 16.7996C25.2137 16.5273 24.7009 16.2702 24.1301 16.0282C23.7119 15.8534 23.3369 15.6836 23.005 15.519C22.6732 15.3543 22.3911 15.1863 22.1587 15.0149C21.9264 14.8434 21.7473 14.6619 21.6212 14.4704C21.495 14.2788 21.432 14.062 21.432 13.82C21.432 13.5982 21.4884 13.3983 21.6012 13.2201C21.7141 13.042 21.8733 12.889 22.0791 12.7613C22.2849 12.6336 22.5371 12.5344 22.8357 12.4638C23.1344 12.3933 23.4664 12.358 23.8314 12.358C24.097 12.358 24.3773 12.3781 24.6727 12.4185C24.9681 12.4588 25.2651 12.521 25.5638 12.605C25.8625 12.689 26.1529 12.7949 26.4349 12.9226C26.717 13.0503 26.9775 13.1982 27.2165 13.3663V10.3514C26.7319 10.1632 26.2026 10.0237 25.6285 9.933C25.0543 9.84225 24.3956 9.79688 23.6522 9.79688C22.8956 9.79688 22.1787 9.87922 21.5017 10.0439C20.8247 10.2086 20.229 10.4657 19.7145 10.8153C19.2001 11.1648 18.7936 11.6101 18.495 12.1513C18.1963 12.6924 18.0469 13.3393 18.0469 14.0923C18.0469 15.0535 18.3207 15.8735 18.8683 16.5525C19.4159 17.2314 20.2472 17.8062 21.3623 18.2767C21.8004 18.4582 22.2086 18.6364 22.587 18.8112C22.9652 18.9858 23.2921 19.1673 23.5675 19.3555C23.843 19.5439 24.0604 19.7488 24.2197 19.9707C24.379 20.1925 24.4587 20.4445 24.4587 20.7268C24.4587 20.9353 24.4089 21.1285 24.3093 21.3067C24.2098 21.4848 24.0588 21.6394 23.8563 21.7705C23.6539 21.9016 23.4016 22.004 23.0996 22.078C22.7976 22.1519 22.4441 22.1889 22.0394 22.1889C21.3491 22.1889 20.6653 22.0662 19.9883 21.8209C19.3113 21.5756 18.6841 21.2075 18.1066 20.7168ZM12.5955 12.7026H16.7578V10.0547H5.15625V12.7026H9.29821V24.4922H12.5955V12.7026Z" fill="white"/>
</g>
<defs>
<clipPath id="clip0_5_31">
<rect width="33" height="33" fill="white"/>
</clipPath>
</defs>
</svg>
