<svg width="31" height="31" viewBox="0 0 31 31" fill="none" xmlns="http://www.w3.org/2000/svg">
<g clip-path="url(#clip0_5_18)">
<path d="M3.72 15.5C3.72 8.99408 8.99408 3.72 15.5 3.72C18.119 3.72 20.537 4.57325 22.4936 6.01939C23.0067 4.81155 24.0408 3.87847 25.3139 3.50216C22.6422 1.31472 19.2237 0 15.5 0C6.93959 0 0 6.93959 0 15.5C0 24.0604 6.93959 31 15.5 31C24.0604 31 31 24.0604 31 15.5C31 13.7085 30.6953 11.985 30.1341 10.3805C29.3705 11.4129 28.169 12.1016 26.8039 12.1723C27.1136 13.2262 27.28 14.3426 27.28 15.5C27.28 22.0059 22.0059 27.28 15.5 27.28C8.99408 27.28 3.72 22.0059 3.72 15.5Z" fill="#3880FF"/>
<path d="M15.5 22.2812C19.2364 22.2812 22.2813 19.2421 22.2813 15.5C22.2813 11.7636 19.2422 8.71875 15.5 8.71875C11.7578 8.71875 8.71875 11.7636 8.71875 15.5C8.71875 19.2364 11.7636 22.2812 15.5 22.2812Z" fill="#3880FF"/>
<path d="M25.6719 9.6875C27.5445 9.6875 29.0625 8.16946 29.0625 6.29688C29.0625 4.42428 27.5445 2.90625 25.6719 2.90625C23.7993 2.90625 22.2812 4.42428 22.2812 6.29688C22.2812 8.16946 23.7993 9.6875 25.6719 9.6875Z" fill="#3880FF"/>
</g>
<defs>
<clipPath id="clip0_5_18">
<rect width="31" height="31" fill="white"/>
</clipPath>
</defs>
</svg>
