<svg width="18" height="18" viewBox="0 0 18 18" fill="none" xmlns="http://www.w3.org/2000/svg">
<path fill-rule="evenodd" clip-rule="evenodd" d="M8.99999 1.79999C9.17901 1.79999 9.3507 1.8711 9.47729 1.99769C9.60388 2.12428 9.67499 2.29597 9.67499 2.47499V13.806L11.43 11.916C11.5517 11.7847 11.7206 11.7072 11.8995 11.7004C11.9881 11.6971 12.0765 11.7112 12.1596 11.742C12.2427 11.7728 12.319 11.8197 12.384 11.88C12.449 11.9403 12.5015 12.0128 12.5385 12.0933C12.5755 12.1739 12.5962 12.2609 12.5996 12.3495C12.6029 12.4381 12.5888 12.5265 12.558 12.6096C12.5272 12.6927 12.4803 12.769 12.42 12.834L9.49499 15.984C9.43181 16.0521 9.35523 16.1065 9.27005 16.1437C9.18487 16.1809 9.09293 16.2001 8.99999 16.2001C8.90705 16.2001 8.81512 16.1809 8.72994 16.1437C8.64476 16.1065 8.56818 16.0521 8.50499 15.984L5.57999 12.834C5.45826 12.7027 5.39366 12.5284 5.40041 12.3495C5.40716 12.1706 5.48471 12.0017 5.61599 11.88C5.74728 11.7583 5.92154 11.6937 6.10045 11.7004C6.27936 11.7072 6.44826 11.7847 6.56999 11.916L8.32499 13.806V2.47499C8.32499 2.29597 8.39611 2.12428 8.5227 1.99769C8.64928 1.8711 8.82097 1.79999 8.99999 1.79999Z" fill="#4A4A4A"/>
</svg>
