<svg width="45" height="40" viewBox="0 0 45 40" fill="none" xmlns="http://www.w3.org/2000/svg">
<g clip-path="url(#clip0_5_2)">
<path d="M22.5791 15.7031C20.1986 15.7031 18.2689 17.6094 18.2689 19.9609C18.2689 22.3125 20.1986 24.2188 22.5791 24.2188C24.9595 24.2188 26.8893 22.3125 26.8893 19.9609C26.8893 17.6094 24.9595 15.7031 22.5791 15.7031Z" fill="#087EA4"/>
<path d="M44.9968 19.9996C44.9968 16.6568 41.8633 13.7251 36.874 11.7957C36.9407 11.3612 37.001 10.9314 37.0439 10.5095C37.536 5.70637 36.3645 2.23974 33.7468 0.746417C30.818 -0.924154 26.6812 0.288383 22.4984 3.59502C18.3156 0.288383 14.1788 -0.924154 11.25 0.746417C8.63236 2.23974 7.46084 5.70637 7.95294 10.5095C7.9958 10.9314 8.05454 11.3628 8.1228 11.7989C7.70689 11.9557 7.29893 12.122 6.90684 12.2961C2.45255 14.2741 0 17.0129 0 19.9996C0 23.3423 3.13355 26.274 8.1228 28.2034C8.05454 28.6379 7.9958 29.0677 7.95294 29.4897C7.46084 34.2928 8.63236 37.7594 11.25 39.2527C12.15 39.7568 13.1698 40.0146 14.2042 39.9994C16.6837 39.9994 19.5792 38.71 22.4984 36.4041C25.4161 38.71 28.3131 39.9994 30.7958 39.9994C31.8302 40.0144 32.8499 39.7566 33.75 39.2527C36.3676 37.7594 37.5392 34.2928 37.0471 29.4897C37.0042 29.0677 36.9439 28.6379 36.8772 28.2034C41.8664 26.2771 45 23.3407 45 19.9996M30.7768 2.11738C31.4419 2.10153 32.0993 2.26069 32.6817 2.57856C34.4993 3.61541 35.3152 6.42793 34.9183 10.2946C34.8914 10.5581 34.8596 10.8247 34.8215 11.093C32.7469 10.4756 30.6226 10.0353 28.4718 9.77692C27.1681 8.06438 25.7182 6.46535 24.1382 4.99736C26.6193 3.10247 28.9481 2.11738 30.7752 2.11738M29.9227 24.2348C29.1199 25.6118 28.2457 26.9469 27.3035 28.2348C25.7066 28.3969 24.1022 28.4775 22.4968 28.4764C20.892 28.4774 19.2882 28.3968 17.6917 28.2348C16.7521 26.9468 15.8805 25.6117 15.0804 24.2348C14.2776 22.8617 13.548 21.448 12.8946 19.9996C13.548 18.5511 14.2776 17.1375 15.0804 15.7643C15.8792 14.3929 16.7481 13.0626 17.6838 11.7785C19.2831 11.6124 20.8902 11.5296 22.4984 11.5306C24.1032 11.5297 25.7071 11.6103 27.3035 11.7722C28.2424 13.0583 29.1145 14.3907 29.9164 15.7643C30.7186 17.1378 31.4482 18.5514 32.1023 19.9996C31.4482 21.4477 30.7186 22.8613 29.9164 24.2348M33.1944 22.6662C33.6982 24.0237 34.1118 25.4123 34.4326 26.823C33.0406 27.2518 31.6215 27.5898 30.1847 27.8348C30.7307 27.0212 31.2599 26.1747 31.7721 25.2952C32.2785 24.4262 32.7531 23.5493 33.2008 22.6725M19.4839 30.4983C20.4713 30.5579 21.4793 30.5924 22.5 30.5924C23.5207 30.5924 24.5351 30.5579 25.524 30.4983C24.5863 31.6081 23.5762 32.6561 22.5 33.6355C21.4261 32.6562 20.4186 31.6082 19.4839 30.4983ZM14.8137 27.8316C13.3764 27.5878 11.9569 27.2509 10.5642 26.823C10.8837 25.4145 11.2957 24.0281 11.7977 22.6725C12.239 23.5493 12.712 24.4262 13.2263 25.2952C13.7407 26.1642 14.2724 27.0207 14.8137 27.8348M11.7977 17.3251C11.2975 15.9745 10.8866 14.5933 10.5674 13.1902C11.9566 12.7619 13.3723 12.4229 14.8058 12.1753C14.2629 12.9863 13.7311 13.8271 13.2184 14.7039C12.7057 15.5808 12.2374 16.4467 11.7897 17.3251M25.5145 9.49927C24.5271 9.43966 23.5191 9.40516 22.4905 9.40516C21.4703 9.40516 20.4649 9.43653 19.4744 9.49927C20.4091 8.38934 21.4166 7.34134 22.4905 6.36205C23.5671 7.34108 24.5773 8.38909 25.5145 9.49927ZM31.7689 14.7039C31.2546 13.8234 30.7228 12.9764 30.1736 12.1628C31.6142 12.4077 33.037 12.7462 34.4326 13.1761C34.1124 14.5844 33.7004 15.9708 33.1992 17.3266C32.7579 16.4498 32.2832 15.5729 31.7705 14.7055M10.0848 10.2961C9.68322 6.43107 10.5039 3.61698 12.3199 2.58012C12.9025 2.26275 13.5598 2.10363 14.2248 2.11895C16.0519 2.11895 18.3807 3.10404 20.8618 4.99892C19.2807 6.46796 17.8298 8.06803 16.525 9.78162C14.3748 10.0413 12.2507 10.4799 10.1753 11.093C10.1388 10.8247 10.1055 10.5597 10.0801 10.2961M7.78626 14.2271C8.03073 14.1225 8.27995 14.0179 8.53394 13.9133C9.03326 15.995 9.71034 18.031 10.5579 19.9996C9.70873 21.972 9.0311 24.0123 8.53235 26.0983C4.48762 24.4591 2.14301 22.1878 2.14301 19.9996C2.14301 17.9259 4.20665 15.8223 7.78626 14.2271ZM12.3199 37.419C10.5039 36.3821 9.68322 33.5681 10.0848 29.703C10.1102 29.4395 10.1436 29.1744 10.1801 28.9046C12.2547 29.5218 14.379 29.9621 16.5297 30.2206C17.8339 31.9338 19.2838 33.5338 20.8634 35.0033C17.4044 37.6433 14.2439 38.5139 12.3247 37.419M34.9168 29.703C35.3136 33.5696 34.4977 36.3821 32.6801 37.419C30.7625 38.517 27.6004 37.6433 24.143 35.0033C25.7221 33.5338 27.1714 31.9338 28.475 30.2206C30.6258 29.9622 32.7501 29.5219 34.8247 28.9046C34.8628 29.1744 34.8945 29.4395 34.9215 29.703M36.474 26.0952C35.9738 24.0104 35.2957 21.9712 34.4469 19.9996C35.2953 18.0269 35.9729 15.9866 36.4724 13.9008C40.5092 15.54 42.8602 17.8113 42.8602 19.9996C42.8602 22.1878 40.5156 24.4591 36.4708 26.0983" fill="#087EA4"/>
</g>
<defs>
<clipPath id="clip0_5_2">
<rect width="45" height="40" fill="white"/>
</clipPath>
</defs>
</svg>
