<svg width="134" height="134" viewBox="0 0 134 134" fill="none" xmlns="http://www.w3.org/2000/svg">
<mask id="mask0_3_176" style="mask-type:luminance" maskUnits="userSpaceOnUse" x="17" y="4" width="100" height="125">
<path d="M116.777 4.69775H17.642V128.903H116.777V4.69775Z" fill="white"/>
</mask>
<g mask="url(#mask0_3_176)">
<path d="M105.727 48.0091C102.943 44.1392 96.5407 36.1824 86.7062 24.3617C82.4372 19.2347 78.7752 14.8827 76.9725 12.7461C75.9784 11.5676 75.1257 10.5591 74.4526 9.76188L73.3797 8.49505L72.7977 7.80807L72.6844 7.64106L72.634 7.619L70.1518 4.69775L67.0057 7.2251C58.974 13.6695 52.3955 21.9763 47.988 31.2347C45.2855 36.7432 43.5207 42.1287 42.5956 47.6751C42.3535 48.9229 42.1458 50.2054 41.9728 51.4913C40.8936 51.4029 39.7957 51.3463 38.7072 51.321C38.6161 51.3148 38.5247 51.3116 38.4021 51.3085C34.4161 51.1698 30.4519 51.6456 26.6233 52.7266L24.9842 53.1865L24.1412 54.6677C20.1896 61.6099 17.9528 69.5135 17.6728 77.5208C17.311 87.92 20.1393 97.9852 25.8526 106.629C31.443 115.084 39.3394 121.548 48.6895 125.32L49.9071 125.811L50.2752 125.94L50.2908 125.934C55.161 127.705 60.2734 128.695 65.4862 128.874C66.0778 128.896 66.6661 128.906 67.2543 128.906C73.8326 128.906 80.238 127.617 86.3163 125.068L86.3603 125.086L87.9772 124.336C96.1758 120.539 103.192 114.571 108.266 107.074C113.485 99.3624 116.417 90.3403 116.745 80.9842C117.135 69.8003 113.426 58.7076 105.724 48.0122L105.727 48.0091ZM69.1294 82.6607C70.8252 89.0987 70.4915 95.2847 68.1447 101.074C62.2805 95.2753 57.9797 88.9001 55.356 82.1059C52.5467 74.839 50.8572 67.9252 50.3223 61.5312C52.8046 62.3475 55.0856 63.4251 57.1179 64.7519C62.9632 68.5681 67.0057 74.5934 69.1294 82.6638V82.6607ZM70.199 113.827C72.6907 115.727 75.3113 117.508 78.0139 119.146C74.034 120.23 69.9285 120.706 65.7756 120.558C65.134 120.536 64.4921 120.498 63.8471 120.445C66.2129 118.402 68.3397 116.187 70.1958 113.827H70.199ZM77.158 80.5397C74.4903 70.4117 69.271 62.754 61.6482 57.7812C58.3038 55.6005 54.4939 53.946 50.3098 52.8653C50.3696 52.1686 50.4451 51.4754 50.5331 50.7949C50.6086 50.2119 50.6872 49.6761 50.7723 49.175C51.4613 45.6109 52.4868 42.0846 53.8146 38.6971C54.3242 37.3987 54.881 36.1099 55.4724 34.865L55.4945 34.8209C56.4068 32.9711 57.4355 31.1025 58.6468 29.1045L59.1219 28.3198L59.106 28.3104C61.9187 23.9081 65.2881 19.8933 69.1419 16.3544L70.63 18.1159C74.1002 22.2347 77.3626 26.1297 80.3294 29.6938C87.0019 37.7107 95.6536 48.239 98.9915 52.8809C105.592 62.0448 108.773 71.4011 108.449 80.6975C108.197 87.9169 106.064 94.9569 102.276 101.052C98.6896 106.828 93.6936 111.662 87.8075 115.065C84.5229 113.423 79.7536 110.723 74.6884 106.793C78.7721 98.6407 79.6058 89.8141 77.1612 80.5397H77.158ZM63.8534 108.473C60.1097 113.332 55.6548 116.493 53.0563 118.081C52.6347 117.927 52.213 117.766 51.7979 117.596L51.4644 117.463C43.7661 114.278 37.2727 108.892 32.6857 101.884C27.9981 94.7207 25.6763 86.3948 25.9752 77.8045C26.1891 71.647 27.7212 65.7635 30.5338 60.3149C32.1666 59.9525 33.8309 59.7254 35.4952 59.6404L35.926 59.631C36.7662 59.612 37.603 59.612 38.399 59.631C39.5692 59.6845 40.7426 59.8075 41.8973 59.9934C42.2747 67.8211 44.1938 76.2667 47.6072 85.1029C50.8949 93.6082 56.3565 101.464 63.8503 108.47L63.8534 108.473Z" fill="white"/>
</g>
</svg>
